<svg xmlns="http://www.w3.org/2000/svg" xmlns:xlink="http://www.w3.org/1999/xlink" viewBox="0 0 499 559"><defs><path id="a" d="M261.76 33.35l194.26 112.155a25 25 0 0112.5 21.651v224.312a25 25 0 01-12.5 21.65L261.76 525.276a25 25 0 01-25 0L42.5 413.119A25 25 0 0130 391.468V167.156a25 25 0 0112.5-21.65L236.76 33.348a25 25 0 0125 0z"/></defs><g fill="none" fill-rule="evenodd"><path fill="#4B3B40" fill-rule="nonzero" d="M222 7.369L27.74 119.525a55 55 0 00-27.5 47.631v224.312a55 55 0 0027.5 47.631L222 551.255a55 55 0 0055 0L471.26 439.1a55 55 0 0027.5-47.631V167.156a55 55 0 00-27.5-47.631L277 7.369a55 55 0 00-55 0z"/><mask id="b" fill="#fff"><use xlink:href="#a"/></mask><use fill="#F68D11" fill-rule="nonzero" xlink:href="#a"/><path fill="#FDE987" fill-rule="nonzero" d="M30 272.448L253.5 297.5l215.02-24.101v118.069a25 25 0 01-12.5 21.65L261.76 525.276a25 25 0 01-25 0L42.5 413.119A25 25 0 0130 391.468v-119.02z" mask="url(#b)"/><path fill="#4B3B40" fill-rule="nonzero" d="M328.812 486.562l-26.15 15.098C239.839 417.517 141.582 361.376 30 355.35v-30.04c122.68 6.118 230.62 68.206 298.81 161.252zm-71.83-344.787c19.938 18.128 32.362 38.495 33.398 58.104l.028.594v.194c-.22 6.06-1.648 12.192-4.201 18.661l-.3.748-.137.332.511-.056a51.035 51.035 0 013.35-.23l.832-.023.832-.008 25.342-.007c5.936 0 10.767 4.726 10.934 10.622l.005.317-.008 25.177a51.95 51.95 0 01-3.51 18.781c39.267-13.084 81.277-20.169 124.942-20.169 6.545 0 13.054.16 19.52.474v30.04a370.941 370.941 0 00-19.52-.514c-61.773 0-119.963 15.346-170.964 42.433a396.893 396.893 0 0142.808 35.044c45.191-21.292 95.075-34.269 147.677-36.955v30.043c-44.357 2.453-86.601 12.826-125.343 29.728a395.997 395.997 0 0147.967 65.47l-25.986 15.002C301.805 357.435 184.384 284.812 50 284.812c-6.71 0-13.38.181-20.001.539V255.31c6.625-.33 13.294-.498 20.001-.498 43.202 0 84.785 6.936 123.695 19.755a51.933 51.933 0 01-3.389-17.23l-.012-.662-.004-.65.012-25.128c0-5.934 4.728-10.763 10.617-10.93l.317-.005 25.682-.008c1.287-.002 2.573.06 3.912.182l.922.094-.07-.185c-2.294-6.029-3.596-12.086-3.788-18.199l-.019-.764-.006-.736c.693-18.763 31.192-56.779 33.007-58.442 4.579-4.16 11.563-4.26 16.107-.13z" mask="url(#b)"/><path fill="#FDE987" fill-rule="nonzero" d="M275.162 175.301l-.01.36c-.511 17.048-4.645 30.905-11.568 39.02l-.197.228-.282.248c-8.891 7.7-22.632 11.232-38.8 11.606l-.63.012.003-.215c.163-16.558 3.887-30.946 11.86-38.98 8.532-7.943 22.236-11.712 38.564-12.249l1.06-.03z" mask="url(#b)" transform="rotate(-45 249.419 201.038)"/><path fill="#FDE987" fill-rule="nonzero" d="M215.054 231.972l10.454 10.443.358.364c11.578 11.945 11.828 30.851.332 43.116l-.147.154-.11.065a2.69 2.69 0 00-.47.362l-10.144 10.145-10.336-10.33c-12.237-12.225-12.242-32.027 0-44.262l10.063-10.057z" mask="url(#b)" transform="rotate(-45 215.249 264.296)"/><path fill="#FDE987" fill-rule="nonzero" d="M315.502 264.779l-10.115 10.153-.37.365c-12.277 11.931-31.815 11.814-43.948-.365l-10.229-10.27 10.118-10.153c12.248-12.3 32.064-12.306 44.317 0l10.227 10.27z" mask="url(#b)" transform="rotate(-45 283.171 264.72)"/></g></svg>