<svg xmlns="http://www.w3.org/2000/svg" viewBox="0 0 439 499"><path fill="#FFF" d="M.001 325.35c111.582 6.026 209.84 62.167 272.662 146.31l-40.902 23.615a25 25 0 01-25 0L12.501 383.119a25 25 0 01-12.5-21.651v-36.117zm20-70.538c134.384 0 251.805 72.623 315.159 180.765l-36.347 20.985C230.623 363.516 122.682 301.428 0 295.31v-39.96c6.622-.357 13.29-.538 20.001-.538zm418.52 70.565v36.091a25 25 0 01-12.5 21.65l-64.875 37.456a395.997 395.997 0 00-47.967-65.469c38.742-16.902 80.986-27.275 125.342-29.728zm-19.52-70.565c6.549 0 13.057.172 19.52.513v40.009c-52.6 2.686-102.484 15.663-147.676 36.955a396.893 396.893 0 00-42.808-35.044c51.001-27.087 109.19-42.433 170.964-42.433zm-157.42-42.943l14.495.03.026 14.333-.003.52-.011.512c-.506 16.71-14.03 30.068-30.813 30.303l-.51.003-14.495-.03-.025-14.333.003-.52c.241-17.117 14.142-30.854 31.334-30.818zm-84.55-.3l.511.004.498.012c16.241.508 29.42 13.347 30.205 29.743l.02.498.004.213-.03.124-.031.141c-.018.094-.03.188-.038.289l-.008.157v14.348l-14.613.004-.518-.004c-16.888-.265-30.51-13.883-30.776-30.78l-.004-.514.004-14.227 14.777-.008zm54.73-208.22l194.26 112.156a25.001 25.001 0 0112.501 21.651v88.13a401.573 401.573 0 00-19.52-.474c-43.666 0-85.676 7.085-124.943 20.17a51.941 51.941 0 003.505-18.03l.005-.752.008-25.177-.005-.317c-.165-5.8-4.84-10.467-10.643-10.619l-.29-.003-25.343.007-.832.008-.832.023c-.834.03-1.67.08-2.51.152l-.84.078-.51.056.137-.332.3-.748c2.45-6.21 3.863-12.11 4.168-17.934l.032-.727v-.194l-.028-.594c-1.036-19.609-13.46-39.976-33.397-58.104-4.543-4.13-11.528-4.03-16.106.129l-.142.141c-2.84 2.99-31.591 39.16-32.836 57.733l-.03.568.006.736.019.764c.184 5.858 1.387 11.665 3.506 17.445l.352.939-.922-.094a42.836 42.836 0 00-3.14-.175l-.772-.007-25.682.008-.317.004c-5.793.165-10.462 4.84-10.613 10.64l-.004.29-.012 25.129.004.65.012.662a51.932 51.932 0 003.389 17.23c-38.91-12.82-80.492-19.755-123.695-19.755-6.707 0-13.376.167-20.001.498v-88.154a25.001 25.001 0 0112.501-21.65L206.761 3.348a25 25 0 0125 0zm-12.337 131.287l.249.262.528.564c11.196 12.049 17.845 24.35 18.84 34.722l.043.485.021.3-.024.375-.043.542c-1.006 11.385-7.967 23.208-18.673 34.56l-.513.54-.436.454-.632-.647c-11.32-11.686-18.653-24.295-18.696-35.455.41-11.477 7.234-23.637 18.11-35.397l.498-.534.728-.77z"/></svg>