<svg xmlns="http://www.w3.org/2000/svg" xmlns:xlink="http://www.w3.org/1999/xlink" viewBox="0 0 1886 559"><defs><path id="a" d="M261.76 33.35l194.26 112.155a25 25 0 0112.5 21.651v224.312a25 25 0 01-12.5 21.65L261.76 525.276a25 25 0 01-25 0L42.5 413.119A25 25 0 0130 391.468V167.156a25 25 0 0112.5-21.65L236.76 33.348a25 25 0 0125 0z"/></defs><g fill="none" fill-rule="evenodd"><path fill="#4B3B40" fill-rule="nonzero" d="M687.119 405.2c10.733 0 21-.992 30.8-2.975s18.958-4.725 27.475-8.225c8.516-3.5 16.45-7.583 23.8-12.25 7.35-4.667 14.058-9.567 20.125-14.7v-102.9h-104.3v37.45h62.65v45.85c-7.467 5.6-16.275 10.092-26.425 13.475-10.15 3.383-21.059 5.075-32.725 5.075-12.6 0-23.975-2.217-34.125-6.65-10.15-4.433-18.9-10.5-26.25-18.2-7.35-7.7-13.009-16.917-16.975-27.65-3.967-10.733-5.95-22.4-5.95-35v-.7c0-11.667 2.041-22.75 6.125-33.25 4.083-10.5 9.683-19.658 16.8-27.475 7.116-7.817 15.516-14.058 25.2-18.725 9.683-4.667 20.125-7 31.325-7 7.7 0 14.758.642 21.175 1.925 6.416 1.283 12.308 3.033 17.675 5.25a88.87 88.87 0 0115.4 8.225c4.9 3.267 9.683 6.883 14.35 10.85l27.3-32.55c-6.3-5.367-12.775-10.092-19.425-14.175s-13.709-7.525-21.175-10.325c-7.467-2.8-15.575-4.958-24.325-6.475-8.75-1.517-18.492-2.275-29.225-2.275-18.434 0-35.409 3.383-50.925 10.15-15.517 6.767-28.875 15.925-40.075 27.475-11.2 11.55-19.892 25.025-26.075 40.425-6.184 15.4-9.275 31.617-9.275 48.65v.7c0 17.967 3.033 34.592 9.1 49.875 6.066 15.283 14.641 28.583 25.725 39.9 11.083 11.317 24.441 20.183 40.075 26.6 15.633 6.417 33.016 9.625 52.15 9.625zm188.387-4.2v-70.35c0-12.133 1.517-22.808 4.55-32.025 3.034-9.217 7.35-16.858 12.95-22.925s12.25-10.617 19.95-13.65c7.7-3.033 16.217-4.55 25.55-4.55h2.45v-44.8c-16.333-.7-29.866 3.15-40.6 11.55-10.733 8.4-19.016 19.6-24.85 33.6V216.2h-42.35V401h42.35zm148.138 3.85c14 0 25.9-2.567 35.7-7.7 9.8-5.133 17.85-11.433 24.15-18.9V401h42V291.45c0-24.733-6.65-43.925-19.95-57.575-13.3-13.65-33.717-20.475-61.25-20.475-15.167 0-28.117 1.4-38.85 4.2a194.892 194.892 0 00-31.5 11.2l11.55 33.95c8.4-3.5 16.683-6.3 24.85-8.4 8.166-2.1 17.5-3.15 28-3.15 14.7 0 25.958 3.383 33.775 10.15 7.816 6.767 11.725 16.567 11.725 29.4v3.5c-7.234-2.333-14.759-4.2-22.575-5.6-7.817-1.4-17.325-2.1-28.525-2.1-10.734 0-20.709 1.225-29.925 3.675-9.217 2.45-17.15 6.183-23.8 11.2-6.65 5.017-11.842 11.317-15.575 18.9-3.734 7.583-5.6 16.508-5.6 26.775v.7c0 9.333 1.808 17.558 5.425 24.675 3.616 7.117 8.4 13.067 14.35 17.85 5.95 4.783 12.891 8.4 20.825 10.85 7.933 2.45 16.333 3.675 25.2 3.675zm11.9-31.85c-10.034 0-18.492-2.333-25.375-7-6.884-4.667-10.325-11.433-10.325-20.3v-.7c0-8.867 3.733-15.867 11.2-21 7.466-5.133 17.85-7.7 31.15-7.7 8.166 0 15.925.7 23.275 2.1 7.35 1.4 13.708 3.15 19.075 5.25v10.5c0 5.833-1.225 11.142-3.675 15.925-2.45 4.783-5.892 8.867-10.325 12.25-4.434 3.383-9.625 6.008-15.575 7.875-5.95 1.867-12.425 2.8-19.425 2.8zm175.437 28V296.7c0-14.467 3.85-25.725 11.55-33.775 7.7-8.05 17.734-12.075 30.1-12.075 12.6 0 22.342 3.908 29.225 11.725 6.884 7.817 10.325 18.958 10.325 33.425v105h42.35V283.4c0-21.7-5.716-38.967-17.15-51.8-11.433-12.833-27.65-19.25-48.65-19.25-7.233 0-13.708.875-19.425 2.625-5.716 1.75-10.966 4.142-15.75 7.175-4.783 3.033-8.983 6.475-12.6 10.325a103.347 103.347 0 00-9.975 12.425v-28.7h-42.35V401h42.35zm220.588 3.85c14 0 25.9-2.567 35.7-7.7 9.8-5.133 17.85-11.433 24.15-18.9V401h42V291.45c0-24.733-6.65-43.925-19.95-57.575-13.3-13.65-33.717-20.475-61.25-20.475-15.167 0-28.117 1.4-38.85 4.2a194.892 194.892 0 00-31.5 11.2l11.55 33.95c8.4-3.5 16.683-6.3 24.85-8.4 8.166-2.1 17.5-3.15 28-3.15 14.7 0 25.958 3.383 33.775 10.15 7.816 6.767 11.725 16.567 11.725 29.4v3.5c-7.234-2.333-14.759-4.2-22.575-5.6-7.817-1.4-17.325-2.1-28.525-2.1-10.734 0-20.709 1.225-29.925 3.675-9.217 2.45-17.15 6.183-23.8 11.2-6.65 5.017-11.842 11.317-15.575 18.9-3.734 7.583-5.6 16.508-5.6 26.775v.7c0 9.333 1.808 17.558 5.425 24.675 3.616 7.117 8.4 13.067 14.35 17.85 5.95 4.783 12.891 8.4 20.825 10.85 7.933 2.45 16.333 3.675 25.2 3.675zm11.9-31.85c-10.034 0-18.492-2.333-25.375-7-6.884-4.667-10.325-11.433-10.325-20.3v-.7c0-8.867 3.733-15.867 11.2-21 7.466-5.133 17.85-7.7 31.15-7.7 8.166 0 15.925.7 23.275 2.1 7.35 1.4 13.708 3.15 19.075 5.25v10.5c0 5.833-1.225 11.142-3.675 15.925-2.45 4.783-5.892 8.867-10.325 12.25-4.434 3.383-9.625 6.008-15.575 7.875-5.95 1.867-12.425 2.8-19.425 2.8zm175.437 28v-70.35c0-12.133 1.517-22.808 4.55-32.025 3.034-9.217 7.35-16.858 12.95-22.925s12.25-10.617 19.95-13.65c7.7-3.033 16.217-4.55 25.55-4.55h2.45v-44.8c-16.333-.7-29.866 3.15-40.6 11.55-10.733 8.4-19.016 19.6-24.85 33.6V216.2h-42.35V401h42.35zm132.738 57.05c7.466 0 14.116-.933 19.95-2.8 5.833-1.867 11.2-4.842 16.1-8.925 4.9-4.083 9.333-9.392 13.3-15.925 3.966-6.533 7.816-14.583 11.55-24.15l73.5-190.05h-44.1l-47.95 137.2-52.5-137.2h-45.15l77 184.8c-3.5 8.167-7.234 13.767-11.2 16.8-3.967 3.033-8.984 4.55-15.05 4.55-4.434 0-8.692-.642-12.775-1.925-4.084-1.283-8.109-2.975-12.075-5.075l-14.35 31.5c6.533 3.5 13.241 6.242 20.125 8.225 6.883 1.983 14.758 2.975 23.625 2.975zM222 7.369L27.74 119.525a55 55 0 00-27.5 47.631v224.312a55 55 0 0027.5 47.631L222 551.255a55 55 0 0055 0L471.26 439.1a55 55 0 0027.5-47.631V167.156a55 55 0 00-27.5-47.631L277 7.369a55 55 0 00-55 0z"/><mask id="b" fill="#fff"><use xlink:href="#a"/></mask><use fill="#F68D11" fill-rule="nonzero" xlink:href="#a"/><path fill="#FDE987" fill-rule="nonzero" d="M30 272.448L253.5 297.5l215.02-24.101v118.069a25 25 0 01-12.5 21.65L261.76 525.276a25 25 0 01-25 0L42.5 413.119A25 25 0 0130 391.468v-119.02z" mask="url(#b)"/><path fill="#4B3B40" fill-rule="nonzero" d="M328.812 486.562l-26.15 15.098C239.839 417.517 141.582 361.376 30 355.35v-30.04c122.68 6.118 230.62 68.206 298.81 161.252zm-71.83-344.787c19.938 18.128 32.362 38.495 33.398 58.104l.028.594v.194c-.22 6.06-1.648 12.192-4.201 18.661l-.3.748-.137.332.511-.056a51.035 51.035 0 013.35-.23l.832-.023.832-.008 25.342-.007c5.936 0 10.767 4.726 10.934 10.622l.005.317-.008 25.177a51.95 51.95 0 01-3.51 18.781c39.267-13.084 81.277-20.169 124.942-20.169 6.545 0 13.054.16 19.52.474v30.04a370.941 370.941 0 00-19.52-.514c-61.773 0-119.963 15.346-170.964 42.433a396.893 396.893 0 0142.808 35.044c45.191-21.292 95.075-34.269 147.677-36.955v30.043c-44.357 2.453-86.601 12.826-125.343 29.728a395.997 395.997 0 0147.967 65.47l-25.986 15.002C301.805 357.435 184.384 284.812 50 284.812c-6.71 0-13.38.181-20.001.539V255.31c6.625-.33 13.294-.498 20.001-.498 43.202 0 84.785 6.936 123.695 19.755a51.933 51.933 0 01-3.389-17.23l-.012-.662-.004-.65.012-25.128c0-5.934 4.728-10.763 10.617-10.93l.317-.005 25.682-.008c1.287-.002 2.573.06 3.912.182l.922.094-.07-.185c-2.294-6.029-3.596-12.086-3.788-18.199l-.019-.764-.006-.736c.693-18.763 31.192-56.779 33.007-58.442 4.579-4.16 11.563-4.26 16.107-.13z" mask="url(#b)"/><path fill="#FDE987" fill-rule="nonzero" d="M275.162 175.301l-.01.36c-.511 17.048-4.645 30.905-11.568 39.02l-.197.228-.282.248c-8.891 7.7-22.632 11.232-38.8 11.606l-.63.012.003-.215c.163-16.558 3.887-30.946 11.86-38.98 8.532-7.943 22.236-11.712 38.564-12.249l1.06-.03z" mask="url(#b)" transform="rotate(-45 249.419 201.038)"/><path fill="#FDE987" fill-rule="nonzero" d="M215.054 231.972l10.454 10.443.358.364c11.578 11.945 11.828 30.851.332 43.116l-.147.154-.11.065a2.69 2.69 0 00-.47.362l-10.144 10.145-10.336-10.33c-12.237-12.225-12.242-32.027 0-44.262l10.063-10.057z" mask="url(#b)" transform="rotate(-45 215.249 264.296)"/><path fill="#FDE987" fill-rule="nonzero" d="M315.502 264.779l-10.115 10.153-.37.365c-12.277 11.931-31.815 11.814-43.948-.365l-10.229-10.27 10.118-10.153c12.248-12.3 32.064-12.306 44.317 0l10.227 10.27z" mask="url(#b)" transform="rotate(-45 283.171 264.72)"/></g></svg>