<svg xmlns="http://www.w3.org/2000/svg" viewBox="0 0 1857 499"><path fill="#FFF" d="M1 325.35c111.582 6.026 209.839 62.167 272.662 146.31l-40.902 23.615a25 25 0 01-25 0L13.5 383.119A25 25 0 011 361.468v-36.117zm20-70.538c134.384 0 251.805 72.623 315.159 180.765l-36.347 20.985C231.622 363.516 123.68 301.428.999 295.31v-39.96c6.622-.357 13.29-.538 20.001-.538zM1712.494 186.2l52.5 137.2 47.95-137.2h44.1l-73.5 190.05-.387.984c-3.612 9.136-7.333 16.858-11.163 23.166-3.967 6.533-8.4 11.842-13.3 15.925s-10.267 7.058-16.1 8.925c-5.834 1.867-12.484 2.8-19.95 2.8-8.867 0-16.742-.992-23.625-2.975-6.521-1.879-12.885-4.439-19.092-7.679l-1.033-.546 14.35-31.5.916.477a71.386 71.386 0 0011.159 4.598c4.083 1.283 8.341 1.925 12.775 1.925 6.066 0 11.083-1.517 15.05-4.55 3.87-2.96 7.518-8.362 10.943-16.207l.257-.593-77-184.8h45.15zM439.52 325.377v36.091a25 25 0 01-12.5 21.65l-64.875 37.456a395.997 395.997 0 00-47.967-65.469c38.742-16.902 80.986-27.275 125.342-29.728zM657.42 121.8c10.733 0 20.475.758 29.225 2.275s16.858 3.675 24.325 6.475c7.466 2.8 14.525 6.242 21.175 10.325 6.259 3.843 12.362 8.255 18.311 13.235l1.114.94-27.3 32.55-1.17-.984a153.663 153.663 0 00-13.18-9.866 88.87 88.87 0 00-15.4-8.225c-5.367-2.217-11.259-3.967-17.675-5.25-6.417-1.283-13.475-1.925-21.175-1.925-11.2 0-21.642 2.333-31.325 7-9.684 4.667-18.084 10.908-25.2 18.725-7.117 7.817-12.717 16.975-16.8 27.475-3.967 10.2-6.007 20.95-6.12 32.251l-.005.999v.7l.004 1.048c.107 12.2 2.09 23.517 5.946 33.952 3.966 10.733 9.625 19.95 16.975 27.65 7.35 7.7 16.1 13.767 26.25 18.2 10.15 4.433 21.525 6.65 34.125 6.65 11.666 0 22.575-1.692 32.725-5.075 9.822-3.274 18.388-7.586 25.698-12.937l.727-.538V271.6h-62.65v-37.45h104.3v102.9l-1.077.903c-5.781 4.806-12.13 9.405-19.048 13.797-7.35 4.667-15.284 8.75-23.8 12.25-8.517 3.5-17.675 6.242-27.475 8.225-9.8 1.983-20.067 2.975-30.8 2.975-19.134 0-36.517-3.208-52.15-9.625-15.634-6.417-28.992-15.283-40.075-26.6-11.084-11.317-19.659-24.617-25.725-39.9-5.943-14.971-8.975-31.23-9.096-48.777l-.004-1.098v-.7l.004-1.086c.129-16.637 3.219-32.492 9.27-47.564 6.184-15.4 14.876-28.875 26.076-40.425 11.2-11.55 24.558-20.708 40.075-27.475 15.516-6.767 32.491-10.15 50.925-10.15zm357.875 61.6c27.533 0 47.95 6.825 61.25 20.475 13.154 13.5 19.803 32.42 19.947 56.762l.003.813V371h-42v-22.75l-.545.637c-6.217 7.189-14.085 13.276-23.605 18.263-9.8 5.133-21.7 7.7-35.7 7.7-8.867 0-17.267-1.225-25.2-3.675-7.934-2.45-14.875-6.067-20.825-10.85-5.95-4.783-10.734-10.733-14.35-17.85-3.514-6.913-5.32-14.873-5.42-23.878l-.005-.797v-.7l.004-.83c.098-9.918 1.963-18.567 5.596-25.945 3.733-7.583 8.925-13.883 15.575-18.9 6.65-5.017 14.583-8.75 23.8-11.2 9.216-2.45 19.191-3.675 29.925-3.675 11.2 0 20.708.7 28.525 2.1 7.295 1.307 14.337 3.02 21.124 5.14l1.45.46v-3.5l-.002-.629c-.126-12.525-4.034-22.115-11.722-28.771-7.817-6.767-19.075-10.15-33.775-10.15-10.5 0-19.834 1.05-28 3.15-7.713 1.983-15.53 4.591-23.451 7.823l-1.4.577-11.55-33.95 1.402-.63a194.644 194.644 0 0130.099-10.57c10.733-2.8 23.683-4.2 38.85-4.2zm407.925 0c27.533 0 47.95 6.825 61.25 20.475 13.154 13.5 19.803 32.42 19.947 56.762l.003.813V371h-42v-22.75l-.545.637c-6.217 7.189-14.085 13.276-23.605 18.263-9.8 5.133-21.7 7.7-35.7 7.7-8.867 0-17.267-1.225-25.2-3.675-7.934-2.45-14.875-6.067-20.825-10.85-5.95-4.783-10.734-10.733-14.35-17.85-3.514-6.913-5.32-14.873-5.42-23.878l-.005-.797v-.7l.004-.83c.098-9.918 1.963-18.567 5.596-25.945 3.733-7.583 8.925-13.883 15.575-18.9 6.65-5.017 14.583-8.75 23.8-11.2 9.216-2.45 19.191-3.675 29.925-3.675 11.2 0 20.708.7 28.525 2.1 7.295 1.307 14.337 3.02 21.124 5.14l1.45.46v-3.5l-.002-.629c-.126-12.525-4.034-22.115-11.722-28.771-7.817-6.767-19.075-10.15-33.775-10.15-10.5 0-19.834 1.05-28 3.15-7.713 1.983-15.53 4.591-23.451 7.823l-1.4.577-11.55-33.95 1.402-.63a194.644 194.644 0 0130.099-10.57c10.733-2.8 23.683-4.2 38.85-4.2zm-551.863 10.85c10.566-8.269 23.845-12.129 39.837-11.58l.763.03v44.8h-2.45l-.9.005c-8.982.094-17.198 1.61-24.65 4.545-7.7 3.033-14.35 7.583-19.95 13.65s-9.916 13.708-12.95 22.925c-2.946 8.953-4.462 19.283-4.546 30.989l-.004 1.036V371h-42.35V186.2h42.35v41.65l.333-.79c5.814-13.632 13.986-24.568 24.517-32.81zm368.375-11.9c21 0 37.217 6.417 48.65 19.25 11.29 12.673 17.006 29.669 17.148 50.988l.002.812V371h-42.35V266l-.003-.72c-.112-14.117-3.553-25.019-10.322-32.705-6.883-7.817-16.625-11.725-29.225-11.725-12.366 0-22.4 4.025-30.1 12.075-7.574 7.918-11.422 18.94-11.547 33.066l-.003.709V371h-42.35V186.2h42.35v28.7l.705-1.018a103.13 103.13 0 019.27-11.407c3.617-3.85 7.817-7.292 12.6-10.325 4.784-3.033 10.034-5.425 15.75-7.175 5.717-1.75 12.192-2.625 19.425-2.625zm375.025 11.9c10.566-8.269 23.845-12.129 39.837-11.58l.763.03v44.8h-2.45l-.9.005c-8.982.094-17.198 1.61-24.65 4.545-7.7 3.033-14.35 7.583-19.95 13.65s-9.916 13.708-12.95 22.925c-2.946 8.953-4.462 19.283-4.546 30.989l-.004 1.036V371h-42.35V186.2h42.35v41.65l.333-.79c5.814-13.632 13.986-24.568 24.517-32.81zm-601.562 92.05c-13.3 0-23.684 2.567-31.15 7.7-7.334 5.042-11.066 11.884-11.197 20.527l-.003.473v.7l.003.482c.123 8.63 3.564 15.236 10.322 19.818 6.883 4.667 15.341 7 25.375 7 7 0 13.475-.933 19.425-2.8 5.95-1.867 11.141-4.492 15.575-7.875 4.433-3.383 7.875-7.467 10.325-12.25 2.359-4.606 3.582-9.7 3.67-15.279l.005-.646v-10.5l-.706-.272c-5.216-1.98-11.339-3.639-18.37-4.978-7.35-1.4-15.108-2.1-23.274-2.1zm407.925 0c-13.3 0-23.684 2.567-31.15 7.7-7.334 5.042-11.066 11.884-11.197 20.527l-.003.473v.7l.003.482c.123 8.63 3.564 15.236 10.322 19.818 6.883 4.667 15.341 7 25.375 7 7 0 13.475-.933 19.425-2.8 5.95-1.867 11.141-4.492 15.575-7.875 4.433-3.383 7.875-7.467 10.325-12.25 2.359-4.606 3.582-9.7 3.67-15.279l.005-.646v-10.5l-.706-.272c-5.216-1.98-11.339-3.639-18.37-4.978-7.35-1.4-15.108-2.1-23.274-2.1zM420 254.812c6.549 0 13.057.172 19.52.513v40.009c-52.6 2.686-102.485 15.663-147.676 36.955a396.893 396.893 0 00-42.808-35.044c51.001-27.087 109.19-42.433 170.964-42.433zm-157.42-42.943l14.495.03.026 14.333-.003.52-.011.512c-.506 16.71-14.03 30.068-30.814 30.303l-.51.003-14.494-.03-.025-14.333.003-.52c.241-17.117 14.142-30.854 31.334-30.818zm-84.55-.3l.51.004.499.012c16.241.508 29.42 13.347 30.205 29.743l.02.498.004.213-.03.124-.031.141c-.018.094-.03.188-.038.289l-.008.157v14.348l-14.613.004-.518-.004c-16.888-.265-30.51-13.883-30.776-30.78l-.004-.514.004-14.227 14.777-.008zM232.76 3.35l194.26 112.156a25.001 25.001 0 0112.5 21.651v88.13a401.573 401.573 0 00-19.52-.474c-43.665 0-85.675 7.085-124.942 20.17a51.941 51.941 0 003.504-18.03l.006-.752.008-25.177-.005-.317c-.165-5.8-4.84-10.467-10.643-10.619l-.29-.003-25.343.007-.832.008-.832.023c-.834.03-1.67.08-2.51.152l-.84.078-.51.056.136-.332.3-.748c2.451-6.21 3.864-12.11 4.169-17.934l.032-.727v-.194l-.028-.594c-1.036-19.609-13.46-39.976-33.397-58.104-4.544-4.13-11.528-4.03-16.107.129l-.14.141c-2.842 2.99-31.592 39.16-32.838 57.733l-.03.568.007.736.019.764c.184 5.858 1.387 11.665 3.506 17.445l.352.939-.922-.094a42.836 42.836 0 00-3.14-.175l-.772-.007-25.682.008-.317.004c-5.793.165-10.462 4.84-10.614 10.64l-.003.29-.012 25.129.004.65.012.662a51.933 51.933 0 003.389 17.23c-38.91-12.82-80.493-19.755-123.695-19.755-6.707 0-13.376.167-20.001.498v-88.154a25.001 25.001 0 0112.501-21.65L207.76 3.348a25 25 0 0125 0zm-12.337 131.287l.248.262.529.564c11.196 12.049 17.845 24.35 18.84 34.722l.043.485.02.3-.023.375-.043.542c-1.006 11.385-7.967 23.208-18.673 34.56l-.513.54-.436.454-.632-.647c-11.32-11.686-18.653-24.295-18.696-35.455.41-11.477 7.234-23.637 18.11-35.397l.498-.534.728-.77z"/></svg>