<svg xmlns="http://www.w3.org/2000/svg" xmlns:xlink="http://www.w3.org/1999/xlink" viewBox="0 0 499 559">
  <title>
    granary-icon
  </title>
  <defs>
    <path id="granary-icon-a" d="M261.759872,33.3493649 L456.019743,145.505354 C463.75477,149.971174 468.519743,158.224349 468.519743,167.155989 L468.519743,391.467968 C468.519743,400.399607 463.75477,408.652783 456.019743,413.118603 L261.759872,525.274592 C254.024845,529.740412 244.494899,529.740412 236.759872,525.274592 L42.5,413.118603 C34.7649731,408.652783 30,400.399607 30,391.467968 L30,167.155989 C30,158.224349 34.7649731,149.971174 42.5,145.505354 L236.759872,33.3493649 C244.494899,28.883545 254.024845,28.883545 261.759872,33.3493649 Z"/>
  </defs>
  <g fill="none" fill-rule="evenodd">
    <path fill="#4B3B40" fill-rule="nonzero" d="M222,7.36860279 L27.7401283,119.524592 C10.7230691,129.349396 0.240128276,147.506382 0.240128276,167.155989 L0.240128276,391.467968 C0.240128276,411.117575 10.7230691,429.274561 27.7401283,439.099365 L222,551.255354 C239.017059,561.080158 259.982941,561.080158 277,551.255354 L471.259872,439.099365 C488.276931,429.274561 498.759872,411.117575 498.759872,391.467968 L498.759872,167.155989 C498.759872,147.506382 488.276931,129.349396 471.259872,119.524592 L277,7.36860279 C259.982941,-2.45620093 239.017059,-2.45620093 222,7.36860279 Z"/>
    <mask id="granary-icon-b" fill="#fff">
      <use xlink:href="#granary-icon-a"/>
    </mask>
    <use fill="#F68D11" fill-rule="nonzero" xlink:href="#granary-icon-a"/>
    <path fill="#FDE987" fill-rule="nonzero" d="M30,272.448 L253.5,297.5 L468.519743,273.399 L468.519743,391.467968 C468.519743,400.399607 463.75477,408.652783 456.019743,413.118603 L261.759872,525.274592 C254.024845,529.740412 244.494899,529.740412 236.759872,525.274592 L42.5,413.118603 C34.7649731,408.652783 30,400.399607 30,391.467968 L30,272.448 Z" mask="url(#granary-icon-b)"/>
    <path fill="#4B3B40" fill-rule="nonzero" d="M328.811531,486.562332 L302.661828,501.660051 C239.839035,417.516622 141.581714,361.376472 30.0009389,355.350677 L30.0009389,325.30958 C152.680525,331.427879 260.62125,393.516039 328.811531,486.562332 Z M256.98285,141.774702 C276.919901,159.90349 289.343737,180.269994 290.379815,199.879116 L290.407722,200.473097 L290.408174,200.666867 C290.187271,206.727373 288.760115,212.858578 286.206978,219.328453 L285.907393,220.076495 L285.7701,220.407955 L286.281037,220.352012 C287.403841,220.238116 288.519279,220.161044 289.630554,220.121758 L290.463279,220.099394 L291.294743,220.09129 L316.637187,220.083616 C322.573061,220.083565 327.403557,224.809922 327.571172,230.705887 L327.575671,231.022841 L327.567998,256.200451 C327.566075,262.724787 326.350262,269.060828 324.057967,274.981472 C363.324845,261.897067 405.335017,254.811978 449,254.811978 C455.545357,254.811978 462.05353,254.971179 468.520895,255.28592 L468.520895,285.325053 C462.056897,284.984434 455.548588,284.811978 449,284.811978 C387.226532,284.811978 329.037245,300.157685 278.036347,327.244892 C293.122555,337.928924 307.425866,349.644653 320.844139,362.289252 C366.035456,340.996931 415.919052,328.020345 468.520895,325.333747 L468.520895,355.376857 C424.164031,357.8301 381.919891,368.203097 343.178058,385.105427 C361.307386,405.165571 377.403548,427.096976 391.144807,450.574246 L365.158772,465.576793 C301.805162,357.435206 184.383613,284.811978 50,284.811978 C43.2891875,284.811978 36.6206746,284.993085 29.9988911,285.350676 L29.9988911,255.309582 C36.6242538,254.979159 43.2926033,254.811978 50,254.811978 C93.2024323,254.811978 134.784927,261.747755 173.694748,274.566571 C171.618509,269.114232 170.453705,263.311882 170.306271,257.336724 L170.294114,256.674842 L170.290289,256.02462 L170.30169,230.896573 C170.301741,224.962925 175.029572,220.133882 180.919213,219.966219 L181.235821,219.961717 L206.91824,219.954041 C208.204733,219.952448 209.490572,220.01333 210.830235,220.135916 L211.751577,220.229764 L211.681476,220.045196 C209.387973,214.016221 208.085614,207.958939 207.893529,201.846147 L207.875309,201.081757 L207.868746,200.346211 C208.561835,181.583033 239.0612,143.567071 240.876498,141.90388 C245.454612,137.744604 252.439438,137.644762 256.98285,141.774702 Z" mask="url(#granary-icon-b)"/>
    <path fill="#FDE987" fill-rule="nonzero" d="M275.161791,175.301159 L275.152447,175.661789 C274.640525,192.70913 270.506758,206.56564 263.58445,214.681281 L263.386791,214.909159 L263.105101,215.156974 C254.213929,222.857054 240.473084,226.389482 224.305153,226.763062 L223.675791,226.775159 L223.677881,226.560189 C223.841315,210.001704 227.56511,195.614086 235.537094,187.579881 C244.069832,179.636573 257.77412,175.868096 274.102023,175.331365 L275.161791,175.301159 Z" mask="url(#granary-icon-b)" transform="rotate(-45 249.419 201.038)"/>
    <path fill="#FDE987" fill-rule="nonzero" d="M215.053611,231.971563 L225.507813,242.415091 L225.865777,242.778586 C237.443696,254.724246 237.693964,273.63031 226.19811,285.894694 L226.050611,286.048563 L225.94146,286.113863 C225.77341,286.217403 225.631219,286.323875 225.47186,286.475552 L215.326611,296.620563 L204.990733,286.291053 C192.753552,274.065744 192.749018,254.263981 204.990765,242.029209 L215.053611,231.971563 Z" mask="url(#granary-icon-b)" transform="rotate(-45 215.249 264.296)"/>
    <path fill="#FDE987" fill-rule="nonzero" d="M315.502286,264.778606 L305.386722,274.931961 L305.016934,275.2972 C292.740089,287.228375 273.201808,287.111054 261.06875,274.932043 L250.840286,264.661606 L260.9576,254.508745 C273.205636,242.209412 293.02157,242.203332 305.275219,254.508309 L315.502286,264.778606 Z" mask="url(#granary-icon-b)" transform="rotate(-45 283.171 264.72)"/>
  </g>
</svg>
