<svg xmlns="http://www.w3.org/2000/svg" viewBox="0 0 439 499">
  <title>
    granary-icon-flat
  </title>
  <path fill="#FFF" d="M1080.00111,709.350677 C1191.58282,715.376472 1289.84014,771.516622 1352.66294,855.660051 L1311.76098,879.274592 C1304.02595,883.740412 1294.49601,883.740412 1286.76098,879.274592 L1092.50111,767.118603 C1084.76608,762.652783 1080.00111,754.399607 1080.00111,745.467968 L1080.00111,709.350677 Z M1100.00111,638.811978 C1234.38472,638.811978 1351.80627,711.435206 1415.15988,819.576793 L1378.81263,840.562313 C1310.62234,747.51603 1202.68163,685.427879 1080.00019,679.30958 L1080.00019,639.350676 C1086.62178,638.993085 1093.2903,638.811978 1100.00111,638.811978 Z M1518.52117,709.376857 L1518.52117,745.467968 C1518.52117,754.399607 1513.75588,762.652783 1506.02085,767.118603 L1441.14579,804.574032 C1427.40456,781.096843 1411.30844,759.16551 1393.17917,739.105427 C1431.921,722.203097 1474.16514,711.8301 1518.52117,709.376857 Z M1499.00111,638.811978 C1505.5497,638.811978 1512.05801,638.984434 1518.52174,639.325053 L1518.52174,679.333747 C1465.92016,682.020345 1416.03657,694.996931 1370.84525,716.289252 C1357.42698,703.644653 1343.12366,691.928924 1328.03746,681.244892 C1379.03835,654.157685 1437.22764,638.811978 1499.00111,638.811978 Z M1341.58192,595.869151 L1356.07574,595.89979 L1356.10247,610.23208 L1356.09925,610.751822 L1356.08783,611.264326 C1355.58164,627.97397 1342.05882,641.332321 1325.27459,641.566604 L1324.76499,641.569676 L1310.27007,641.539997 L1310.24494,627.206818 L1310.24805,626.687103 C1310.48916,609.570287 1324.39,595.833289 1341.58192,595.869151 Z M1257.03187,595.569498 L1257.54202,595.573409 L1258.0401,595.58508 C1274.28126,596.09251 1287.46077,608.932441 1288.24476,625.328187 L1288.26471,625.826107 L1288.26922,626.039207 L1288.23821,626.162562 L1288.2078,626.304497 C1288.19007,626.39835 1288.17739,626.491921 1288.1697,626.592747 L1288.1619,626.750372 L1288.16173,641.097753 L1273.5491,641.102256 L1273.03117,641.098316 C1256.14339,640.833024 1242.52125,627.215288 1242.25523,610.317432 L1242.25127,609.804382 L1242.25495,595.577047 L1257.03187,595.569498 Z M1311.76098,387.349365 L1506.02085,499.505354 C1513.75588,503.971174 1518.522,512.224349 1518.522,521.155989 L1518.522,609.28592 C1512.05464,608.971179 1505.54647,608.811978 1499.00111,608.811978 C1455.33613,608.811978 1413.32595,615.897067 1374.05908,628.981472 C1376.26321,623.288546 1377.47207,617.211561 1377.56351,610.952411 L1377.56911,610.200451 L1377.57678,585.022841 L1377.57228,584.705887 C1377.40741,578.906577 1372.73129,574.238842 1366.92932,574.087408 L1366.6383,574.083616 L1341.29585,574.09129 L1340.46439,574.099394 L1339.63166,574.121758 C1338.79821,574.151222 1337.96241,574.201941 1337.12292,574.27351 L1336.28215,574.352012 L1335.77121,574.407955 L1335.9085,574.076495 L1336.20809,573.328453 C1338.6591,567.117373 1340.07241,561.218411 1340.37699,555.394484 L1340.40928,554.666867 L1340.40883,554.473097 L1340.38092,553.879116 C1339.34485,534.269994 1326.92101,513.90349 1306.98396,495.774702 C1302.44055,491.644762 1295.45572,491.744604 1290.87761,495.90388 L1290.7365,496.044997 C1287.8955,499.034146 1259.14465,535.205374 1257.89953,553.777595 L1257.86985,554.346211 L1257.87642,555.081757 L1257.89464,555.846147 C1258.07872,561.704239 1259.28248,567.511351 1261.40107,573.291425 L1261.75269,574.229764 L1260.83134,574.135916 C1259.75961,574.037847 1258.72233,573.979269 1257.6916,573.960576 L1256.91935,573.954041 L1231.23693,573.961717 L1230.92032,573.966219 C1225.12723,574.131133 1220.45817,578.805848 1220.3066,584.605661 L1220.3028,584.896573 L1220.2914,610.02462 L1220.29522,610.674842 L1220.30738,611.336724 C1220.45481,617.311882 1221.61962,623.114232 1223.69586,628.566571 C1184.78604,615.747755 1143.20354,608.811978 1100.00111,608.811978 C1093.29371,608.811978 1086.62536,608.979159 1080,609.309582 L1080,521.155989 C1080,512.224349 1084.76608,503.971174 1092.50111,499.505354 L1286.76098,387.349365 C1294.49601,382.883545 1304.02595,382.883545 1311.76098,387.349365 Z M1299.42414,518.636302 L1299.67254,518.897913 L1300.20069,519.46249 C1311.39685,531.510937 1318.04597,543.811881 1319.04117,554.183902 L1319.08368,554.66867 L1319.10505,554.96957 L1319.08109,555.343986 L1319.0377,555.885792 C1318.03179,567.270754 1311.07108,579.094308 1300.36478,590.446228 L1299.85213,590.986436 L1299.41566,591.440016 L1298.78444,590.793296 C1287.46407,579.106895 1280.131,566.498451 1280.08762,555.337562 C1280.49819,543.861123 1287.32184,531.700779 1298.19894,519.941273 L1298.69613,519.40703 L1299.42414,518.636302 Z" transform="translate(-1080 -384)"/>
</svg>
