<svg xmlns="http://www.w3.org/2000/svg" xmlns:xlink="http://www.w3.org/1999/xlink" viewBox="0 0 1886 559">
  <title>
    granary-logo-alt
  </title>
  <defs>
    <path id="granary-logo-alt-a" d="M261.759872,33.3493649 L456.019743,145.505354 C463.75477,149.971174 468.519743,158.224349 468.519743,167.155989 L468.519743,391.467968 C468.519743,400.399607 463.75477,408.652783 456.019743,413.118603 L261.759872,525.274592 C254.024845,529.740412 244.494899,529.740412 236.759872,525.274592 L42.5,413.118603 C34.7649731,408.652783 30,400.399607 30,391.467968 L30,167.155989 C30,158.224349 34.7649731,149.971174 42.5,145.505354 L236.759872,33.3493649 C244.494899,28.883545 254.024845,28.883545 261.759872,33.3493649 Z"/>
  </defs>
  <g fill="none" fill-rule="evenodd">
    <path fill="#FDE987" fill-rule="nonzero" d="M687.11875,405.2 C697.852083,405.2 708.11875,404.208333 717.91875,402.225 C727.71875,400.241667 736.877083,397.5 745.39375,394 C753.910417,390.5 761.84375,386.416667 769.19375,381.75 C776.54375,377.083333 783.252083,372.183333 789.31875,367.05 L789.31875,367.05 L789.31875,264.15 L685.01875,264.15 L685.01875,301.6 L747.66875,301.6 L747.66875,347.45 C740.202083,353.05 731.39375,357.541667 721.24375,360.925 C711.09375,364.308333 700.185417,366 688.51875,366 C675.91875,366 664.54375,363.783333 654.39375,359.35 C644.24375,354.916667 635.49375,348.85 628.14375,341.15 C620.79375,333.45 615.135417,324.233333 611.16875,313.5 C607.202083,302.766667 605.21875,291.1 605.21875,278.5 L605.21875,278.5 L605.21875,277.8 C605.21875,266.133333 607.260417,255.05 611.34375,244.55 C615.427083,234.05 621.027083,224.891667 628.14375,217.075 C635.260417,209.258333 643.660417,203.016667 653.34375,198.35 C663.027083,193.683333 673.46875,191.35 684.66875,191.35 C692.36875,191.35 699.427083,191.991667 705.84375,193.275 C712.260417,194.558333 718.152083,196.308333 723.51875,198.525 C728.885417,200.741667 734.01875,203.483333 738.91875,206.75 C743.81875,210.016667 748.602083,213.633333 753.26875,217.6 L753.26875,217.6 L780.56875,185.05 C774.26875,179.683333 767.79375,174.958333 761.14375,170.875 C754.49375,166.791667 747.435417,163.35 739.96875,160.55 C732.502083,157.75 724.39375,155.591667 715.64375,154.075 C706.89375,152.558333 697.152083,151.8 686.41875,151.8 C667.985417,151.8 651.010417,155.183333 635.49375,161.95 C619.977083,168.716667 606.61875,177.875 595.41875,189.425 C584.21875,200.975 575.527083,214.45 569.34375,229.85 C563.160417,245.25 560.06875,261.466667 560.06875,278.5 L560.06875,278.5 L560.06875,279.2 C560.06875,297.166667 563.102083,313.791667 569.16875,329.075 C575.235417,344.358333 583.810417,357.658333 594.89375,368.975 C605.977083,380.291667 619.335417,389.158333 634.96875,395.575 C650.602083,401.991667 667.985417,405.2 687.11875,405.2 Z M875.50625,401 L875.50625,330.65 C875.50625,318.516667 877.022917,307.841667 880.05625,298.625 C883.089583,289.408333 887.40625,281.766667 893.00625,275.7 C898.60625,269.633333 905.25625,265.083333 912.95625,262.05 C920.65625,259.016667 929.172917,257.5 938.50625,257.5 L938.50625,257.5 L940.95625,257.5 L940.95625,212.7 C924.622917,212 911.089583,215.85 900.35625,224.25 C889.622917,232.65 881.339583,243.85 875.50625,257.85 L875.50625,257.85 L875.50625,216.2 L833.15625,216.2 L833.15625,401 L875.50625,401 Z M1023.64375,404.85 C1037.64375,404.85 1049.54375,402.283333 1059.34375,397.15 C1069.14375,392.016667 1077.19375,385.716667 1083.49375,378.25 L1083.49375,378.25 L1083.49375,401 L1125.49375,401 L1125.49375,291.45 C1125.49375,266.716667 1118.84375,247.525 1105.54375,233.875 C1092.24375,220.225 1071.82708,213.4 1044.29375,213.4 C1029.12708,213.4 1016.17708,214.8 1005.44375,217.6 C994.710417,220.4 984.210417,224.133333 973.94375,228.8 L973.94375,228.8 L985.49375,262.75 C993.89375,259.25 1002.17708,256.45 1010.34375,254.35 C1018.51042,252.25 1027.84375,251.2 1038.34375,251.2 C1053.04375,251.2 1064.30208,254.583333 1072.11875,261.35 C1079.93542,268.116667 1083.84375,277.916667 1083.84375,290.75 L1083.84375,290.75 L1083.84375,294.25 C1076.61042,291.916667 1069.08542,290.05 1061.26875,288.65 C1053.45208,287.25 1043.94375,286.55 1032.74375,286.55 C1022.01042,286.55 1012.03542,287.775 1002.81875,290.225 C993.602083,292.675 985.66875,296.408333 979.01875,301.425 C972.36875,306.441667 967.177083,312.741667 963.44375,320.325 C959.710417,327.908333 957.84375,336.833333 957.84375,347.1 L957.84375,347.1 L957.84375,347.8 C957.84375,357.133333 959.652083,365.358333 963.26875,372.475 C966.885417,379.591667 971.66875,385.541667 977.61875,390.325 C983.56875,395.108333 990.510417,398.725 998.44375,401.175 C1006.37708,403.625 1014.77708,404.85 1023.64375,404.85 Z M1035.54375,373 C1025.51042,373 1017.05208,370.666667 1010.16875,366 C1003.28542,361.333333 999.84375,354.566667 999.84375,345.7 L999.84375,345.7 L999.84375,345 C999.84375,336.133333 1003.57708,329.133333 1011.04375,324 C1018.51042,318.866667 1028.89375,316.3 1042.19375,316.3 C1050.36042,316.3 1058.11875,317 1065.46875,318.4 C1072.81875,319.8 1079.17708,321.55 1084.54375,323.65 L1084.54375,323.65 L1084.54375,334.15 C1084.54375,339.983333 1083.31875,345.291667 1080.86875,350.075 C1078.41875,354.858333 1074.97708,358.941667 1070.54375,362.325 C1066.11042,365.708333 1060.91875,368.333333 1054.96875,370.2 C1049.01875,372.066667 1042.54375,373 1035.54375,373 Z M1210.98125,401 L1210.98125,296.7 C1210.98125,282.233333 1214.83125,270.975 1222.53125,262.925 C1230.23125,254.875 1240.26458,250.85 1252.63125,250.85 C1265.23125,250.85 1274.97292,254.758333 1281.85625,262.575 C1288.73958,270.391667 1292.18125,281.533333 1292.18125,296 L1292.18125,296 L1292.18125,401 L1334.53125,401 L1334.53125,283.4 C1334.53125,261.7 1328.81458,244.433333 1317.38125,231.6 C1305.94792,218.766667 1289.73125,212.35 1268.73125,212.35 C1261.49792,212.35 1255.02292,213.225 1249.30625,214.975 C1243.58958,216.725 1238.33958,219.116667 1233.55625,222.15 C1228.77292,225.183333 1224.57292,228.625 1220.95625,232.475 C1217.33958,236.325 1214.01458,240.466667 1210.98125,244.9 L1210.98125,244.9 L1210.98125,216.2 L1168.63125,216.2 L1168.63125,401 L1210.98125,401 Z M1431.56875,404.85 C1445.56875,404.85 1457.46875,402.283333 1467.26875,397.15 C1477.06875,392.016667 1485.11875,385.716667 1491.41875,378.25 L1491.41875,378.25 L1491.41875,401 L1533.41875,401 L1533.41875,291.45 C1533.41875,266.716667 1526.76875,247.525 1513.46875,233.875 C1500.16875,220.225 1479.75208,213.4 1452.21875,213.4 C1437.05208,213.4 1424.10208,214.8 1413.36875,217.6 C1402.63542,220.4 1392.13542,224.133333 1381.86875,228.8 L1381.86875,228.8 L1393.41875,262.75 C1401.81875,259.25 1410.10208,256.45 1418.26875,254.35 C1426.43542,252.25 1435.76875,251.2 1446.26875,251.2 C1460.96875,251.2 1472.22708,254.583333 1480.04375,261.35 C1487.86042,268.116667 1491.76875,277.916667 1491.76875,290.75 L1491.76875,290.75 L1491.76875,294.25 C1484.53542,291.916667 1477.01042,290.05 1469.19375,288.65 C1461.37708,287.25 1451.86875,286.55 1440.66875,286.55 C1429.93542,286.55 1419.96042,287.775 1410.74375,290.225 C1401.52708,292.675 1393.59375,296.408333 1386.94375,301.425 C1380.29375,306.441667 1375.10208,312.741667 1371.36875,320.325 C1367.63542,327.908333 1365.76875,336.833333 1365.76875,347.1 L1365.76875,347.1 L1365.76875,347.8 C1365.76875,357.133333 1367.57708,365.358333 1371.19375,372.475 C1374.81042,379.591667 1379.59375,385.541667 1385.54375,390.325 C1391.49375,395.108333 1398.43542,398.725 1406.36875,401.175 C1414.30208,403.625 1422.70208,404.85 1431.56875,404.85 Z M1443.46875,373 C1433.43542,373 1424.97708,370.666667 1418.09375,366 C1411.21042,361.333333 1407.76875,354.566667 1407.76875,345.7 L1407.76875,345.7 L1407.76875,345 C1407.76875,336.133333 1411.50208,329.133333 1418.96875,324 C1426.43542,318.866667 1436.81875,316.3 1450.11875,316.3 C1458.28542,316.3 1466.04375,317 1473.39375,318.4 C1480.74375,319.8 1487.10208,321.55 1492.46875,323.65 L1492.46875,323.65 L1492.46875,334.15 C1492.46875,339.983333 1491.24375,345.291667 1488.79375,350.075 C1486.34375,354.858333 1482.90208,358.941667 1478.46875,362.325 C1474.03542,365.708333 1468.84375,368.333333 1462.89375,370.2 C1456.94375,372.066667 1450.46875,373 1443.46875,373 Z M1618.90625,401 L1618.90625,330.65 C1618.90625,318.516667 1620.42292,307.841667 1623.45625,298.625 C1626.48958,289.408333 1630.80625,281.766667 1636.40625,275.7 C1642.00625,269.633333 1648.65625,265.083333 1656.35625,262.05 C1664.05625,259.016667 1672.57292,257.5 1681.90625,257.5 L1681.90625,257.5 L1684.35625,257.5 L1684.35625,212.7 C1668.02292,212 1654.48958,215.85 1643.75625,224.25 C1633.02292,232.65 1624.73958,243.85 1618.90625,257.85 L1618.90625,257.85 L1618.90625,216.2 L1576.55625,216.2 L1576.55625,401 L1618.90625,401 Z M1751.64375,458.05 C1759.11042,458.05 1765.76042,457.116667 1771.59375,455.25 C1777.42708,453.383333 1782.79375,450.408333 1787.69375,446.325 C1792.59375,442.241667 1797.02708,436.933333 1800.99375,430.4 C1804.96042,423.866667 1808.81042,415.816667 1812.54375,406.25 L1812.54375,406.25 L1886.04375,216.2 L1841.94375,216.2 L1793.99375,353.4 L1741.49375,216.2 L1696.34375,216.2 L1773.34375,401 C1769.84375,409.166667 1766.11042,414.766667 1762.14375,417.8 C1758.17708,420.833333 1753.16042,422.35 1747.09375,422.35 C1742.66042,422.35 1738.40208,421.708333 1734.31875,420.425 C1730.23542,419.141667 1726.21042,417.45 1722.24375,415.35 L1722.24375,415.35 L1707.89375,446.85 C1714.42708,450.35 1721.13542,453.091667 1728.01875,455.075 C1734.90208,457.058333 1742.77708,458.05 1751.64375,458.05 Z"/>
    <path fill="#4B3B40" fill-rule="nonzero" d="M222,7.36860279 L27.7401283,119.524592 C10.7230691,129.349396 0.240128276,147.506382 0.240128276,167.155989 L0.240128276,391.467968 C0.240128276,411.117575 10.7230691,429.274561 27.7401283,439.099365 L222,551.255354 C239.017059,561.080158 259.982941,561.080158 277,551.255354 L471.259872,439.099365 C488.276931,429.274561 498.759872,411.117575 498.759872,391.467968 L498.759872,167.155989 C498.759872,147.506382 488.276931,129.349396 471.259872,119.524592 L277,7.36860279 C259.982941,-2.45620093 239.017059,-2.45620093 222,7.36860279 Z"/>
    <mask id="granary-logo-alt-b" fill="#fff">
      <use xlink:href="#granary-logo-alt-a"/>
    </mask>
    <use fill="#F68D11" fill-rule="nonzero" xlink:href="#granary-logo-alt-a"/>
    <path fill="#FDE987" fill-rule="nonzero" d="M30,272.448 L253.5,297.5 L468.519743,273.399 L468.519743,391.467968 C468.519743,400.399607 463.75477,408.652783 456.019743,413.118603 L261.759872,525.274592 C254.024845,529.740412 244.494899,529.740412 236.759872,525.274592 L42.5,413.118603 C34.7649731,408.652783 30,400.399607 30,391.467968 L30,272.448 Z" mask="url(#granary-logo-alt-b)"/>
    <path fill="#4B3B40" fill-rule="nonzero" d="M328.811531,486.562332 L302.661828,501.660051 C239.839035,417.516622 141.581714,361.376472 30.0009389,355.350677 L30.0009389,325.30958 C152.680525,331.427879 260.62125,393.516039 328.811531,486.562332 Z M256.98285,141.774702 C276.919901,159.90349 289.343737,180.269994 290.379815,199.879116 L290.407722,200.473097 L290.408174,200.666867 C290.187271,206.727373 288.760115,212.858578 286.206978,219.328453 L285.907393,220.076495 L285.7701,220.407955 L286.281037,220.352012 C287.403841,220.238116 288.519279,220.161044 289.630554,220.121758 L290.463279,220.099394 L291.294743,220.09129 L316.637187,220.083616 C322.573061,220.083565 327.403557,224.809922 327.571172,230.705887 L327.575671,231.022841 L327.567998,256.200451 C327.566075,262.724787 326.350262,269.060828 324.057967,274.981472 C363.324845,261.897067 405.335017,254.811978 449,254.811978 C455.545357,254.811978 462.05353,254.971179 468.520895,255.28592 L468.520895,285.325053 C462.056897,284.984434 455.548588,284.811978 449,284.811978 C387.226532,284.811978 329.037245,300.157685 278.036347,327.244892 C293.122555,337.928924 307.425866,349.644653 320.844139,362.289252 C366.035456,340.996931 415.919052,328.020345 468.520895,325.333747 L468.520895,355.376857 C424.164031,357.8301 381.919891,368.203097 343.178058,385.105427 C361.307386,405.165571 377.403548,427.096976 391.144807,450.574246 L365.158772,465.576793 C301.805162,357.435206 184.383613,284.811978 50,284.811978 C43.2891875,284.811978 36.6206746,284.993085 29.9988911,285.350676 L29.9988911,255.309582 C36.6242538,254.979159 43.2926033,254.811978 50,254.811978 C93.2024323,254.811978 134.784927,261.747755 173.694748,274.566571 C171.618509,269.114232 170.453705,263.311882 170.306271,257.336724 L170.294114,256.674842 L170.290289,256.02462 L170.30169,230.896573 C170.301741,224.962925 175.029572,220.133882 180.919213,219.966219 L181.235821,219.961717 L206.91824,219.954041 C208.204733,219.952448 209.490572,220.01333 210.830235,220.135916 L211.751577,220.229764 L211.681476,220.045196 C209.387973,214.016221 208.085614,207.958939 207.893529,201.846147 L207.875309,201.081757 L207.868746,200.346211 C208.561835,181.583033 239.0612,143.567071 240.876498,141.90388 C245.454612,137.744604 252.439438,137.644762 256.98285,141.774702 Z" mask="url(#granary-logo-alt-b)"/>
    <path fill="#FDE987" fill-rule="nonzero" d="M275.161791,175.301159 L275.152447,175.661789 C274.640525,192.70913 270.506758,206.56564 263.58445,214.681281 L263.386791,214.909159 L263.105101,215.156974 C254.213929,222.857054 240.473084,226.389482 224.305153,226.763062 L223.675791,226.775159 L223.677881,226.560189 C223.841315,210.001704 227.56511,195.614086 235.537094,187.579881 C244.069832,179.636573 257.77412,175.868096 274.102023,175.331365 L275.161791,175.301159 Z" mask="url(#granary-logo-alt-b)" transform="rotate(-45 249.419 201.038)"/>
    <path fill="#FDE987" fill-rule="nonzero" d="M215.053611,231.971563 L225.507813,242.415091 L225.865777,242.778586 C237.443696,254.724246 237.693964,273.63031 226.19811,285.894694 L226.050611,286.048563 L225.94146,286.113863 C225.77341,286.217403 225.631219,286.323875 225.47186,286.475552 L215.326611,296.620563 L204.990733,286.291053 C192.753552,274.065744 192.749018,254.263981 204.990765,242.029209 L215.053611,231.971563 Z" mask="url(#granary-logo-alt-b)" transform="rotate(-45 215.249 264.296)"/>
    <path fill="#FDE987" fill-rule="nonzero" d="M315.502286,264.778606 L305.386722,274.931961 L305.016934,275.2972 C292.740089,287.228375 273.201808,287.111054 261.06875,274.932043 L250.840286,264.661606 L260.9576,254.508745 C273.205636,242.209412 293.02157,242.203332 305.275219,254.508309 L315.502286,264.778606 Z" mask="url(#granary-logo-alt-b)" transform="rotate(-45 283.171 264.72)"/>
  </g>
</svg>
