<svg xmlns="http://www.w3.org/2000/svg" viewBox="0 0 1857 499">
  <title>
    granary-logo-flat
  </title>
  <path fill="#FFF" d="M385,709.350677 C496.581714,715.376472 594.839035,771.516622 657.661828,855.660051 L616.759872,879.274592 C609.024845,883.740412 599.494899,883.740412 591.759872,879.274592 L397.5,767.118603 C389.764973,762.652783 385,754.399607 385,745.467968 L385,709.350677 Z M405,638.811978 C539.383613,638.811978 656.805162,711.435206 720.158772,819.576793 L683.811517,840.562313 C615.621236,747.51603 507.680516,685.427879 384.999082,679.30958 L384.999082,639.350676 C391.620675,638.993085 398.289187,638.811978 405,638.811978 Z M2096.49375,570.2 L2148.99375,707.4 L2196.94375,570.2 L2241.04375,570.2 L2167.54375,760.25 L2167.15713,761.234245 C2163.54476,770.370036 2159.82364,778.091954 2155.99375,784.4 C2152.02708,790.933333 2147.59375,796.241667 2142.69375,800.325 C2137.79375,804.408333 2132.42708,807.383333 2126.59375,809.25 C2120.76042,811.116667 2114.11042,812.05 2106.64375,812.05 C2097.77708,812.05 2089.90208,811.058333 2083.01875,809.075 C2076.4977,807.196053 2070.13371,804.636496 2063.92678,801.39633 L2062.89375,800.85 L2077.24375,769.35 L2078.16017,769.827367 C2081.82999,771.70784 2085.54952,773.240385 2089.31875,774.425 C2093.40208,775.708333 2097.66042,776.35 2102.09375,776.35 C2108.16042,776.35 2113.17708,774.833333 2117.14375,771.8 C2121.01367,768.84065 2124.6615,763.438311 2128.08724,755.59298 L2128.34375,755 L2051.34375,570.2 L2096.49375,570.2 Z M823.520059,709.376857 L823.520059,745.467968 C823.520059,754.399607 818.75477,762.652783 811.019743,767.118603 L746.144681,804.574032 C732.40345,781.096843 716.307331,759.16551 698.178058,739.105427 C736.919891,722.203097 779.164031,711.8301 823.520059,709.376857 Z M1041.41875,505.8 C1052.15208,505.8 1061.89375,506.558333 1070.64375,508.075 C1079.39375,509.591667 1087.50208,511.75 1094.96875,514.55 C1102.43542,517.35 1109.49375,520.791667 1116.14375,524.875 C1122.40257,528.718137 1128.50638,533.129671 1134.45517,538.109602 L1135.56875,539.05 L1108.26875,571.6 L1107.09965,570.615625 C1102.80405,567.032986 1098.41042,563.744444 1093.91875,560.75 C1089.01875,557.483333 1083.88542,554.741667 1078.51875,552.525 C1073.15208,550.308333 1067.26042,548.558333 1060.84375,547.275 C1054.42708,545.991667 1047.36875,545.35 1039.66875,545.35 C1028.46875,545.35 1018.02708,547.683333 1008.34375,552.35 C998.660417,557.016667 990.260417,563.258333 983.14375,571.075 C976.027083,578.891667 970.427083,588.05 966.34375,598.55 C962.377083,608.75 960.337083,619.500476 960.22375,630.801429 L960.21875,631.8 L960.21875,632.5 L960.223341,633.54784 C960.330466,645.747428 962.312269,657.064815 966.16875,667.5 C970.135417,678.233333 975.79375,687.45 983.14375,695.15 C990.49375,702.85 999.24375,708.916667 1009.39375,713.35 C1019.54375,717.783333 1030.91875,720 1043.51875,720 C1055.18542,720 1066.09375,718.308333 1076.24375,714.925 C1086.06633,711.650806 1094.63241,707.338632 1101.94198,701.988476 L1102.66875,701.45 L1102.66875,655.6 L1040.01875,655.6 L1040.01875,618.15 L1144.31875,618.15 L1144.31875,721.05 L1143.2415,721.95346 C1137.46065,726.758997 1131.1114,731.357843 1124.19375,735.75 C1116.84375,740.416667 1108.91042,744.5 1100.39375,748 C1091.87708,751.5 1082.71875,754.241667 1072.91875,756.225 C1063.11875,758.208333 1052.85208,759.2 1042.11875,759.2 C1022.98542,759.2 1005.60208,755.991667 989.96875,749.575 C974.335417,743.158333 960.977083,734.291667 949.89375,722.975 C938.810417,711.658333 930.235417,698.358333 924.16875,683.075 C918.225893,668.103571 915.193823,651.844679 915.07254,634.298324 L915.06875,633.2 L915.06875,632.5 L915.072949,631.413875 C915.20171,614.776965 918.291977,598.92234 924.34375,583.85 C930.527083,568.45 939.21875,554.975 950.41875,543.425 C961.61875,531.875 974.977083,522.716667 990.49375,515.95 C1006.01042,509.183333 1022.98542,505.8 1041.41875,505.8 Z M1399.29375,567.4 C1426.82708,567.4 1447.24375,574.225 1460.54375,587.875 C1473.6976,601.375 1480.34679,620.295541 1480.49134,644.636623 L1480.49375,645.45 L1480.49375,755 L1438.49375,755 L1438.49375,732.25 L1437.94946,732.887143 C1431.73232,740.075714 1423.86375,746.163333 1414.34375,751.15 C1404.54375,756.283333 1392.64375,758.85 1378.64375,758.85 C1369.77708,758.85 1361.37708,757.625 1353.44375,755.175 C1345.51042,752.725 1338.56875,749.108333 1332.61875,744.325 C1326.66875,739.541667 1321.88542,733.591667 1318.26875,726.475 C1314.75542,719.561667 1312.94856,711.602429 1312.84818,702.597286 L1312.84375,701.8 L1312.84375,701.1 L1312.84784,700.270508 C1312.94601,690.351881 1314.81132,681.703378 1318.44375,674.325 C1322.17708,666.741667 1327.36875,660.441667 1334.01875,655.425 C1340.66875,650.408333 1348.60208,646.675 1357.81875,644.225 C1367.03542,641.775 1377.01042,640.55 1387.74375,640.55 C1398.94375,640.55 1408.45208,641.25 1416.26875,642.65 C1423.56431,643.956667 1430.60579,645.669852 1437.39319,647.789556 L1438.84375,648.25 L1438.84375,644.75 L1438.8406,644.121298 C1438.71456,631.59617 1434.80727,622.005738 1427.11875,615.35 C1419.30208,608.583333 1408.04375,605.2 1393.34375,605.2 C1382.84375,605.2 1373.51042,606.25 1365.34375,608.35 C1357.63079,610.333333 1349.81376,612.941049 1341.89267,616.173148 L1340.49375,616.75 L1328.94375,582.8 L1330.3452,582.169421 C1340.16544,577.795868 1350.1983,574.272727 1360.44375,571.6 C1371.17708,568.8 1384.12708,567.4 1399.29375,567.4 Z M1807.21875,567.4 C1834.75208,567.4 1855.16875,574.225 1868.46875,587.875 C1881.6226,601.375 1888.27179,620.295541 1888.41634,644.636623 L1888.41875,645.45 L1888.41875,755 L1846.41875,755 L1846.41875,732.25 L1845.87446,732.887143 C1839.65732,740.075714 1831.78875,746.163333 1822.26875,751.15 C1812.46875,756.283333 1800.56875,758.85 1786.56875,758.85 C1777.70208,758.85 1769.30208,757.625 1761.36875,755.175 C1753.43542,752.725 1746.49375,749.108333 1740.54375,744.325 C1734.59375,739.541667 1729.81042,733.591667 1726.19375,726.475 C1722.68042,719.561667 1720.87356,711.602429 1720.77318,702.597286 L1720.76875,701.8 L1720.76875,701.1 L1720.77284,700.270508 C1720.87101,690.351881 1722.73632,681.703378 1726.36875,674.325 C1730.10208,666.741667 1735.29375,660.441667 1741.94375,655.425 C1748.59375,650.408333 1756.52708,646.675 1765.74375,644.225 C1774.96042,641.775 1784.93542,640.55 1795.66875,640.55 C1806.86875,640.55 1816.37708,641.25 1824.19375,642.65 C1831.48931,643.956667 1838.53079,645.669852 1845.31819,647.789556 L1846.76875,648.25 L1846.76875,644.75 L1846.7656,644.121298 C1846.63956,631.59617 1842.73227,622.005738 1835.04375,615.35 C1827.22708,608.583333 1815.96875,605.2 1801.26875,605.2 C1790.76875,605.2 1781.43542,606.25 1773.26875,608.35 C1765.55579,610.333333 1757.73876,612.941049 1749.81767,616.173148 L1748.41875,616.75 L1736.86875,582.8 L1738.2702,582.169421 C1748.09044,577.795868 1758.1233,574.272727 1768.36875,571.6 C1779.10208,568.8 1792.05208,567.4 1807.21875,567.4 Z M1255.35625,578.25 C1265.92188,569.98125 1279.20068,566.121423 1295.19268,566.67052 L1295.95625,566.7 L1295.95625,611.5 L1293.50625,611.5 L1292.60557,611.504735 C1283.6243,611.599428 1275.40786,613.114516 1267.95625,616.05 C1260.25625,619.083333 1253.60625,623.633333 1248.00625,629.7 C1242.40625,635.766667 1238.08958,643.408333 1235.05625,652.625 C1232.10958,661.578333 1230.59415,671.907857 1230.50996,683.613571 L1230.50625,684.65 L1230.50625,755 L1188.15625,755 L1188.15625,570.2 L1230.50625,570.2 L1230.50625,611.85 L1230.83906,611.060538 C1236.65303,597.428355 1244.82543,586.491509 1255.35625,578.25 Z M1623.73125,566.35 C1644.73125,566.35 1660.94792,572.766667 1672.38125,585.6 C1683.67167,598.272917 1689.38744,615.269026 1689.52857,636.588328 L1689.53125,637.4 L1689.53125,755 L1647.18125,755 L1647.18125,650 L1647.17838,649.279438 C1647.06557,635.162868 1643.62486,624.261389 1636.85625,616.575 C1629.97292,608.758333 1620.23125,604.85 1607.63125,604.85 C1595.26458,604.85 1585.23125,608.875 1577.53125,616.925 C1569.95748,624.843033 1566.10851,635.86507 1565.98435,649.991111 L1565.98125,650.7 L1565.98125,755 L1523.63125,755 L1523.63125,570.2 L1565.98125,570.2 L1565.98125,598.9 L1566.68643,597.882101 C1569.52785,593.831213 1572.61779,590.028846 1575.95625,586.475 C1579.57292,582.625 1583.77292,579.183333 1588.55625,576.15 C1593.33958,573.116667 1598.58958,570.725 1604.30625,568.975 C1610.02292,567.225 1616.49792,566.35 1623.73125,566.35 Z M1998.75625,578.25 C2009.32188,569.98125 2022.60068,566.121423 2038.59268,566.67052 L2039.35625,566.7 L2039.35625,611.5 L2036.90625,611.5 L2036.00557,611.504735 C2027.0243,611.599428 2018.80786,613.114516 2011.35625,616.05 C2003.65625,619.083333 1997.00625,623.633333 1991.40625,629.7 C1985.80625,635.766667 1981.48958,643.408333 1978.45625,652.625 C1975.50958,661.578333 1973.99415,671.907857 1973.90996,683.613571 L1973.90625,684.65 L1973.90625,755 L1931.55625,755 L1931.55625,570.2 L1973.90625,570.2 L1973.90625,611.85 L1974.23906,611.060538 C1980.05303,597.428355 1988.22543,586.491509 1998.75625,578.25 Z M1397.19375,670.3 C1383.89375,670.3 1373.51042,672.866667 1366.04375,678 C1358.71042,683.041667 1354.97827,689.883929 1354.84732,698.526786 L1354.84375,699 L1354.84375,699.7 L1354.84716,700.181554 C1354.97004,708.812033 1358.41057,715.418182 1365.16875,720 C1372.05208,724.666667 1380.51042,727 1390.54375,727 C1397.54375,727 1404.01875,726.066667 1409.96875,724.2 C1415.91875,722.333333 1421.11042,719.708333 1425.54375,716.325 C1429.97708,712.941667 1433.41875,708.858333 1435.86875,704.075 C1438.22801,699.468827 1439.45133,694.375823 1439.53871,688.795988 L1439.54375,688.15 L1439.54375,677.65 L1438.83813,677.378072 C1433.62231,675.398488 1427.49918,673.73913 1420.46875,672.4 C1413.11875,671 1405.36042,670.3 1397.19375,670.3 Z M1805.11875,670.3 C1791.81875,670.3 1781.43542,672.866667 1773.96875,678 C1766.63542,683.041667 1762.90327,689.883929 1762.77232,698.526786 L1762.76875,699 L1762.76875,699.7 L1762.77216,700.181554 C1762.89504,708.812033 1766.33557,715.418182 1773.09375,720 C1779.97708,724.666667 1788.43542,727 1798.46875,727 C1805.46875,727 1811.94375,726.066667 1817.89375,724.2 C1823.84375,722.333333 1829.03542,719.708333 1833.46875,716.325 C1837.90208,712.941667 1841.34375,708.858333 1843.79375,704.075 C1846.15301,699.468827 1847.37633,694.375823 1847.46371,688.795988 L1847.46875,688.15 L1847.46875,677.65 L1846.76313,677.378072 C1841.54731,675.398488 1835.42418,673.73913 1828.39375,672.4 C1821.04375,671 1813.28542,670.3 1805.11875,670.3 Z M804,638.811978 C810.548588,638.811978 817.056897,638.984434 823.520633,639.325053 L823.520633,679.333747 C770.919052,682.020345 721.035456,694.996931 675.844139,716.289252 C662.425866,703.644653 648.122555,691.928924 633.036347,681.244892 C684.037245,654.157685 742.226532,638.811978 804,638.811978 Z M646.580811,595.869151 L661.074636,595.89979 L661.101358,610.23208 L661.098141,610.751822 L661.086723,611.264326 C660.580528,627.97397 647.05771,641.332321 630.273478,641.566604 L629.763877,641.569676 L615.268966,641.539997 L615.24383,627.206818 L615.246944,626.687103 C615.488047,609.570287 629.388895,595.833289 646.580811,595.869151 Z M562.030766,595.569498 L562.540914,595.573409 L563.038989,595.58508 C579.280156,596.09251 592.459664,608.932441 593.243648,625.328187 L593.263602,625.826107 L593.268106,626.039207 L593.237099,626.162562 L593.206696,626.304497 C593.188961,626.39835 593.176283,626.491921 593.168594,626.592747 L593.160795,626.750372 L593.160626,641.097753 L578.54799,641.102256 L578.030061,641.098316 C561.142279,640.833024 547.520141,627.215288 547.254125,610.317432 L547.250162,609.804382 L547.25384,595.577047 L562.030766,595.569498 Z M616.759872,387.349365 L811.019743,499.505354 C818.75477,503.971174 823.520895,512.224349 823.520895,521.155989 L823.520895,609.28592 C817.05353,608.971179 810.545357,608.811978 804,608.811978 C760.335017,608.811978 718.324845,615.897067 679.057967,628.981472 C681.262097,623.288546 682.470958,617.211561 682.562397,610.952411 L682.567998,610.200451 L682.575671,585.022841 L682.571172,584.705887 C682.406305,578.906577 677.730185,574.238842 671.928208,574.087408 L671.637187,574.083616 L646.294743,574.09129 L645.463279,574.099394 L644.630554,574.121758 C643.797098,574.151222 642.9613,574.201941 642.121809,574.27351 L641.281037,574.352012 L640.7701,574.407955 L640.907393,574.076495 L641.206978,573.328453 C643.657989,567.117373 645.071297,561.218411 645.37588,555.394484 L645.408174,554.666867 L645.407722,554.473097 L645.379815,553.879116 C644.343737,534.269994 631.919901,513.90349 611.98285,495.774702 C607.439438,491.644762 600.454612,491.744604 595.876498,495.90388 L595.735387,496.044997 C592.894393,499.034146 564.143543,535.205374 562.898422,553.777595 L562.868746,554.346211 L562.875309,555.081757 L562.893529,555.846147 C563.07761,561.704239 564.281371,567.511351 566.399959,573.291425 L566.751577,574.229764 L565.830235,574.135916 C564.758505,574.037847 563.721221,573.979269 562.690493,573.960576 L561.91824,573.954041 L536.235821,573.961717 L535.919213,573.966219 C530.126123,574.131133 525.457064,578.805848 525.305488,584.605661 L525.30169,584.896573 L525.290289,610.02462 L525.294114,610.674842 L525.306271,611.336724 C525.453705,617.311882 526.618509,623.114232 528.694748,628.566571 C489.784927,615.747755 448.202432,608.811978 405,608.811978 C398.292603,608.811978 391.624254,608.979159 384.998891,609.309582 L384.998891,521.155989 C384.998891,512.224349 389.764973,503.971174 397.5,499.505354 L591.759872,387.349365 C599.494899,382.883545 609.024845,382.883545 616.759872,387.349365 Z M604.423034,518.636302 L604.67143,518.897913 L605.199577,519.46249 C616.395746,531.510937 623.044865,543.811881 624.040064,554.183902 L624.082569,554.66867 L624.103937,554.96957 L624.079983,555.343986 L624.036592,555.885792 C623.03068,567.270754 616.069968,579.094308 605.363667,590.446228 L604.85102,590.986436 L604.414548,591.440016 L603.78333,590.793296 C592.462956,579.106895 585.129895,566.498451 585.086509,555.337562 C585.497078,543.861123 592.320728,531.700779 603.197827,519.941273 L603.695024,519.40703 L604.423034,518.636302 Z" transform="translate(-384 -384)"/>
</svg>
